<svg width="20" height="24" viewBox="0 0 20 24" fill="none" xmlns="http://www.w3.org/2000/svg">
<path d="M0.0732826 24V14.4951C1.4441 15.3188 2.86904 15.736 3.41016 15.8416H12.8797C14.6112 16.6654 13.9619 18.1386 12.8797 18.6139H3.41016V21.2277H13.6011C19.4801 18.6139 16.3236 13.8614 13.6011 13.4654H3.95127C-3.08317 10.6931 0.794803 5.70297 3.95127 5.46534H12.8797C12.8797 5.46534 13.9619 5.86141 13.9619 6.89109C13.9619 8.07924 12.8797 8.23762 12.8797 8.23762H4.49238C4.49238 8.23762 3.41015 8.47525 3.41016 9.42574C3.41017 10.3762 4.49238 10.6931 4.49238 10.6931H13.6011C24.9645 13.8614 18.9221 24 12.8797 24H0.0732826Z" fill="#1890FF"/>
<path d="M13.059 2.85149C16.6664 3.40594 17.3879 7.04951 16.2155 8.71288L18.7407 10.0594C22.2038 3.59604 16.6364 0.660067 13.4198 0L0.0722656 0.079208V4.19802C1.65953 3.18416 3.07846 2.87789 3.58951 2.85149H13.059Z" fill="#1890FF"/>
</svg>
