<svg width="568" height="548" viewBox="0 0 568 548" fill="none" xmlns="http://www.w3.org/2000/svg">
<path opacity="0.7" d="M533.931 77.5465C499.723 25.6255 434.698 -5.2078 371.856 0.726899C309.015 6.66159 251.174 48.9274 227.661 106.331C215.611 135.628 211.846 168.495 193.891 194.704C175.484 221.576 144.802 237.603 114.706 250.993C84.6112 264.384 52.9494 276.72 29.2558 299.194C5.56223 321.667 -8.40087 357.818 5.56223 387.1C19.8416 416.863 55.9017 428.763 81.9451 449.549C107.988 470.336 124.542 500.913 151.128 521.007C175.695 539.579 207.372 547.743 238.431 547.683C269.49 547.623 300.038 539.79 329.048 528.96C419.018 495.385 503.775 432.905 539.67 345.451C606.111 183.497 533.931 77.5465 533.931 77.5465Z" fill="white"/>
</svg>
