<svg width="568" height="400" viewBox="0 0 568 400" fill="none" xmlns="http://www.w3.org/2000/svg">
<path opacity="0.7" d="M533.931 -70.4535C499.723 -122.375 434.698 -153.208 371.856 -147.273C309.015 -141.338 251.174 -99.0726 227.661 -41.6687C215.611 -12.3718 211.846 20.495 193.891 46.704C175.484 73.5758 144.802 89.6025 114.706 102.993C84.6112 116.384 52.9494 128.72 29.2558 151.194C5.56223 173.667 -8.40087 209.818 5.56223 239.1C19.8416 268.863 55.9017 280.763 81.9451 301.549C107.988 322.336 124.542 352.913 151.128 373.007C175.695 391.579 207.372 399.743 238.431 399.683C269.49 399.623 300.038 391.79 329.048 380.96C419.018 347.385 503.775 284.905 539.67 197.451C606.111 35.4974 533.931 -70.4535 533.931 -70.4535Z" fill="white"/>
</svg>
