<svg width="176" height="540" viewBox="0 0 176 540" fill="none" xmlns="http://www.w3.org/2000/svg">
<path opacity="0.7" d="M141.931 69.5465C107.723 17.6255 42.6978 -13.2078 -20.1436 -7.2731C-82.9851 -1.33841 -140.826 40.9274 -164.339 98.3313C-176.389 127.628 -180.154 160.495 -198.109 186.704C-216.516 213.576 -247.198 229.603 -277.294 242.993C-307.389 256.384 -339.051 268.72 -362.744 291.194C-386.438 313.667 -400.401 349.818 -386.438 379.1C-372.158 408.863 -336.098 420.763 -310.055 441.549C-284.012 462.336 -267.458 492.913 -240.872 513.007C-216.305 531.579 -184.628 539.743 -153.569 539.683C-122.51 539.623 -91.9625 531.79 -62.9518 520.96C27.0176 487.385 111.775 424.905 147.67 337.451C214.111 175.497 141.931 69.5465 141.931 69.5465Z" fill="white"/>
</svg>
